<svg xmlns="http://www.w3.org/2000/svg" viewBox="0 0 75 75"><path d="M7.5,5A2.5,2.5,0,1,1,5,2.5,2.5,2.5,0,0,1,7.5,5ZM15,2.5A2.5,2.5,0,1,0,17.5,5,2.5,2.5,0,0,0,15,2.5Zm10,0A2.5,2.5,0,1,0,27.5,5,2.5,2.5,0,0,0,25,2.5Zm10,0A2.5,2.5,0,1,0,37.5,5,2.5,2.5,0,0,0,35,2.5Zm10,0A2.5,2.5,0,1,0,47.5,5,2.5,2.5,0,0,0,45,2.5Zm10,0A2.5,2.5,0,1,0,57.5,5,2.5,2.5,0,0,0,55,2.5Zm10,0A2.5,2.5,0,1,0,67.5,5,2.5,2.5,0,0,0,65,2.5Zm10,0A2.5,2.5,0,1,0,77.5,5,2.5,2.5,0,0,0,75,2.5ZM5,12.5A2.5,2.5,0,1,0,7.5,15,2.5,2.5,0,0,0,5,12.5Zm10,0A2.5,2.5,0,1,0,17.5,15,2.5,2.5,0,0,0,15,12.5Zm10,0A2.5,2.5,0,1,0,27.5,15,2.5,2.5,0,0,0,25,12.5Zm10,0A2.5,2.5,0,1,0,37.5,15,2.5,2.5,0,0,0,35,12.5Zm10,0A2.5,2.5,0,1,0,47.5,15,2.5,2.5,0,0,0,45,12.5Zm10,0A2.5,2.5,0,1,0,57.5,15,2.5,2.5,0,0,0,55,12.5Zm10,0A2.5,2.5,0,1,0,67.5,15,2.5,2.5,0,0,0,65,12.5Zm10,0A2.5,2.5,0,1,0,77.5,15,2.5,2.5,0,0,0,75,12.5ZM5,22.5A2.5,2.5,0,1,0,7.5,25,2.5,2.5,0,0,0,5,22.5Zm10,0A2.5,2.5,0,1,0,17.5,25,2.5,2.5,0,0,0,15,22.5Zm10,0A2.5,2.5,0,1,0,27.5,25,2.5,2.5,0,0,0,25,22.5Zm10,0A2.5,2.5,0,1,0,37.5,25,2.5,2.5,0,0,0,35,22.5Zm10,0A2.5,2.5,0,1,0,47.5,25,2.5,2.5,0,0,0,45,22.5Zm10,0A2.5,2.5,0,1,0,57.5,25,2.5,2.5,0,0,0,55,22.5Zm10,0A2.5,2.5,0,1,0,67.5,25,2.5,2.5,0,0,0,65,22.5Zm10,0A2.5,2.5,0,1,0,77.5,25,2.5,2.5,0,0,0,75,22.5ZM5,32.5A2.5,2.5,0,1,0,7.5,35,2.5,2.5,0,0,0,5,32.5Zm10,0A2.5,2.5,0,1,0,17.5,35,2.5,2.5,0,0,0,15,32.5Zm10,0A2.5,2.5,0,1,0,27.5,35,2.5,2.5,0,0,0,25,32.5Zm10,0A2.5,2.5,0,1,0,37.5,35,2.5,2.5,0,0,0,35,32.5Zm10,0A2.5,2.5,0,1,0,47.5,35,2.5,2.5,0,0,0,45,32.5Zm10,0A2.5,2.5,0,1,0,57.5,35,2.5,2.5,0,0,0,55,32.5Zm10,0A2.5,2.5,0,1,0,67.5,35,2.5,2.5,0,0,0,65,32.5Zm10,0A2.5,2.5,0,1,0,77.5,35,2.5,2.5,0,0,0,75,32.5ZM5,42.5A2.5,2.5,0,1,0,7.5,45,2.5,2.5,0,0,0,5,42.5Zm10,0A2.5,2.5,0,1,0,17.5,45,2.5,2.5,0,0,0,15,42.5Zm10,0A2.5,2.5,0,1,0,27.5,45,2.5,2.5,0,0,0,25,42.5Zm10,0A2.5,2.5,0,1,0,37.5,45,2.5,2.5,0,0,0,35,42.5Zm10,0A2.5,2.5,0,1,0,47.5,45,2.5,2.5,0,0,0,45,42.5Zm10,0A2.5,2.5,0,1,0,57.5,45,2.5,2.5,0,0,0,55,42.5Zm10,0A2.5,2.5,0,1,0,67.5,45,2.5,2.5,0,0,0,65,42.5Zm10,0A2.5,2.5,0,1,0,77.5,45,2.5,2.5,0,0,0,75,42.5ZM5,52.5A2.5,2.5,0,1,0,7.5,55,2.5,2.5,0,0,0,5,52.5Zm10,0A2.5,2.5,0,1,0,17.5,55,2.5,2.5,0,0,0,15,52.5Zm10,0A2.5,2.5,0,1,0,27.5,55,2.5,2.5,0,0,0,25,52.5Zm10,0A2.5,2.5,0,1,0,37.5,55,2.5,2.5,0,0,0,35,52.5Zm10,0A2.5,2.5,0,1,0,47.5,55,2.5,2.5,0,0,0,45,52.5Zm10,0A2.5,2.5,0,1,0,57.5,55,2.5,2.5,0,0,0,55,52.5Zm10,0A2.5,2.5,0,1,0,67.5,55,2.5,2.5,0,0,0,65,52.5Zm10,0A2.5,2.5,0,1,0,77.5,55,2.5,2.5,0,0,0,75,52.5ZM5,62.5A2.5,2.5,0,1,0,7.5,65,2.5,2.5,0,0,0,5,62.5Zm10,0A2.5,2.5,0,1,0,17.5,65,2.5,2.5,0,0,0,15,62.5Zm10,0A2.5,2.5,0,1,0,27.5,65,2.5,2.5,0,0,0,25,62.5Zm10,0A2.5,2.5,0,1,0,37.5,65,2.5,2.5,0,0,0,35,62.5Zm10,0A2.5,2.5,0,1,0,47.5,65,2.5,2.5,0,0,0,45,62.5Zm10,0A2.5,2.5,0,1,0,57.5,65,2.5,2.5,0,0,0,55,62.5Zm10,0A2.5,2.5,0,1,0,67.5,65,2.5,2.5,0,0,0,65,62.5Zm10,0A2.5,2.5,0,1,0,77.5,65,2.5,2.5,0,0,0,75,62.5ZM5,72.5A2.5,2.5,0,1,0,7.5,75,2.5,2.5,0,0,0,5,72.5Zm10,0A2.5,2.5,0,1,0,17.5,75,2.5,2.5,0,0,0,15,72.5Zm10,0A2.5,2.5,0,1,0,27.5,75,2.5,2.5,0,0,0,25,72.5Zm10,0A2.5,2.5,0,1,0,37.5,75,2.5,2.5,0,0,0,35,72.5Zm10,0A2.5,2.5,0,1,0,47.5,75,2.5,2.5,0,0,0,45,72.5Zm10,0A2.5,2.5,0,1,0,57.5,75,2.5,2.5,0,0,0,55,72.5Zm10,0A2.5,2.5,0,1,0,67.5,75,2.5,2.5,0,0,0,65,72.5Zm10,0A2.5,2.5,0,1,0,77.5,75,2.5,2.5,0,0,0,75,72.5Z" transform="translate(-2.5 -2.5)" style="fill:#b0a69c"/></svg>